<?xml version="1.0" encoding="utf-8"?>
<svg version="1.1"  xmlns="http://www.w3.org/2000/svg" x="0px" y="0px" viewBox="0 0 283.5 283.5"  xml:space="preserve">
	<path fill="#010101" d="M140.3,273.4c-18.6,0-45.2-4.1-67.1-23.5c-24.9-22.2-37.4-58.6-37.4-108.2c0-73.8,45.4-131.6,103.3-131.6
	c46.4,0,75,30.5,90.1,95.8c1,4.7,12.4,33.2,15.7,39.3c4.2,7.6,3.4,17.1-2.2,23.9c-3.6,4.2-8.6,5.8-12.5,6.8
	c-0.7,0.2-2.2,0.7-3.2,1l0.2,4.1c1.4,25.4,2.5,47.2-17.3,65.7C192,263.2,165.9,273.4,140.3,273.4z"/>
	<path fill="#FFFFFF" d="M139.2,11.7c45.6,0,73.7,30,88.4,94.5c1,4.7,12.5,33.7,15.9,39.6c3.9,6.9,3.2,15.7-2,21.8
	c-3.2,3.9-7.8,5.1-11.7,6.1c-1.4,0.3-3.7,1-4.6,1.5c0,0.2,0,0.2,0,0.3c0,1.7,0.2,3.2,0.2,4.9c1.4,24.9,2.4,46.6-16.8,64.3
	c-17.8,16.6-43.4,26.4-68.4,26.4c-18.3,0-44.5-4.1-66-23.2c-24.4-21.8-36.9-57.7-36.9-107C37.5,68.8,82.1,11.7,139.2,11.7
	M139.2,8.4c-58.9,0-105,58.6-105,133.3c0,50.1,12.7,87,37.9,109.6c22.2,19.8,49.4,24,68.2,24c25.9,0,52.5-10.3,70.8-27.4
	c20.3-19,19.1-42.3,17.8-67.1c0-0.8-0.2-1.9-0.2-2.9c0.7-0.2,1.5-0.5,1.9-0.5c4.1-1.2,9.5-2.5,13.4-7.3
	c6.1-7.3,6.9-17.6,2.4-25.7c-3.2-5.8-14.6-34.4-15.6-38.8c-7.6-33.2-18.5-57.1-33.5-73C182.2,16.1,163,8.4,139.2,8.4L139.2,8.4z"
	/>
	<path fill="#FFFFFF" d="M218.4,176.3c1.4,26.9,3.6,47.1-14.2,63.8c-16.6,15.4-40.3,24.6-63.8,24.6c-35.9,0-96-16.1-96-123.3
	C44.3,72.5,86,18.5,139,18.5c44.2,0,68.4,31.2,81.6,89.1c1.2,5.4,12.9,34.9,16.8,41.7c2.5,4.6,2,10.2-1.2,14.1
	C231.6,168.9,217.9,166,218.4,176.3z"/>
	<path fill="#010101" d="M223.7,113h-3l0,0c-1.5-4.6-4.9-8.6-10.2-10.3c-1.7-0.7-3.6-0.8-5.4-0.8h-29.5h-2.7h-46.1
	c-7.3,0-14.4,2.9-19.5,8.1l-15.4,15.4c-1.9,1.9-2,5.1,0,6.6c0.8,0.7,1.7,1,2.7,1c1.2,0,2.2-0.3,3-1.2l15.6-15.6
	c3.6-3.6,8.5-5.6,13.4-5.6H152c4.2,0,9.1,32.7,9.1,32.7c1.4,6.9,7.1,12.2,14.2,12.9l25.2,0.2c0.5,0,0.8,0,1.4,0
	c8,0,14.7-5.9,15.9-13.9l3-20.7h3c2.5,0,4.6-2.4,4.2-4.9C227.9,114.5,225.9,113,223.7,113z M209.4,141.3
	c-0.5,4.1-4.1,6.8-8.1,6.4l-25.2-0.2c-3.2-0.3-5.8-2.9-6.4-5.9l-4.2-22.2c-0.3-2.2,0.2-4.4,1.5-6.1c1.4-1.7,3.6-2.7,5.8-2.7h2.7
	H205c1.4,0,2.5,0.2,3.7,0.8c2.2,1.4,3.6,3.4,3.7,5.6c0,0.2,0,0.3,0,0.5c0,0.3,0,0.7,0.2,0.8c0,0.2,0,0.3,0,0.5L209.4,141.3z"/>
</svg>
